<?xml version="1.0" encoding="UTF-8"?>
<svg width="492px" height="146px" viewBox="0 0 492 146" version="1.1" xmlns="http://www.w3.org/2000/svg" xmlns:xlink="http://www.w3.org/1999/xlink">
    <title>编组 5</title>
    <defs>
        <linearGradient x1="8.88971887%" y1="91.3220189%" x2="90.3547707%" y2="17.6313228%" id="linearGradient-1">
            <!-- <stop stop-color="#08C258" offset="0%"></stop> -->
            <!-- <stop stop-color="#4DD34A" offset="100%"></stop> -->
            <stop stop-color="#0f994b" offset="0%"></stop>
            <stop stop-color="#4cb04a" offset="100%"></stop>
        </linearGradient>
    </defs>
    <g id="logo规范" stroke="none" stroke-width="1" fill="none" fill-rule="evenodd">
        <g id="标准标志" transform="translate(-1069.000000, -267.000000)">
            <g id="编组-5" transform="translate(1069.000000, 267.000000)">
                <g id="编组-3">
                    <path d="M88.7362637,35.4395604 C119.08158,35.4395604 143.681319,60.0392995 143.681319,90.3846154 C143.681319,120.728611 119.083719,145.32753 88.7402231,145.32967 L49.1797836,145.32967 L49.1797836,129.945055 L33.7951682,129.945055 L33.7951682,91.0511171 C33.7925311,90.8292637 33.7912088,90.6070939 33.7912088,90.3846154 C33.7912088,60.0392995 58.3909478,35.4395604 88.7362637,35.4395604 Z M89.8351648,69.2307692 C86.8006332,69.2307692 84.3406593,71.6907431 84.3406593,74.7252747 L84.3406593,74.7252747 L84.3406593,83.5164835 C84.3406593,86.5510151 86.8006332,89.010989 89.8351648,89.010989 C92.8696964,89.010989 95.3296703,86.5510151 95.3296703,83.5164835 L95.3296703,83.5164835 L95.3296703,74.7252747 C95.3296703,71.6907431 92.8696964,69.2307692 89.8351648,69.2307692 Z M114.56044,69.2307692 C111.525908,69.2307692 109.065934,71.6907431 109.065934,74.7252747 L109.065934,74.7252747 L109.065934,83.5164835 C109.065934,86.5510151 111.525908,89.010989 114.56044,89.010989 C117.594971,89.010989 120.054945,86.5510151 120.054945,83.5164835 L120.054945,83.5164835 L120.054945,74.7252747 C120.054945,71.6907431 117.594971,69.2307692 114.56044,69.2307692 Z" id="形状结合" fill="url(#linearGradient-1)"></path>
                    <path d="M14.2857143,64.289625 L14.2857143,88.0460359 C16.3717955,88.8255613 17.8571429,90.8366215 17.8571429,93.1946031 C17.8571429,95.1803688 16.8037189,96.9200942 15.2252144,97.8854358 L15.8609884,119.550515 C15.9024518,120.96345 14.8649719,122.177237 13.4628076,122.356237 L6.90635774,123.19323 C5.40130627,123.385365 4.02546542,122.321035 3.83333119,120.815983 C3.7929617,120.499756 3.8079402,120.178915 3.87759613,119.867824 L8.89550484,97.4572893 C7.65834383,96.4497998 6.86813187,94.9144834 6.86813187,93.1946031 C6.86813187,90.8366215 8.35347919,88.8255613 10.4395604,88.0460359 L10.4395604,63.714755 L4.99461247,62.9009194 C2.29353857,62.4972001 0.431164646,59.980268 0.834883876,57.2791941 C0.978680698,56.3171249 1.40303208,55.4188344 2.05483015,54.6967444 L48.1528402,3.62738032 C50.5201851,1.00473352 54.0041389,-0.319722933 57.5158789,0.0679366815 L126.386491,7.67053675 C129.10108,7.97019914 131.058765,10.4137325 130.759102,13.1283212 C130.636964,14.2347497 130.145094,15.2676075 129.363072,16.0597848 L114.462774,31.1535932 C106.580384,27.725201 97.8803282,25.8241758 88.7362637,25.8241758 C61.5360004,25.8241758 38.2645256,42.6453197 28.756873,66.452574 L14.2857143,64.289625 Z" id="路径" fill="#666"></path>
                </g>
                <path d="M178.736914,45.0995553 L194.392063,45.0995553 L194.392063,23.4231953 L200.194321,23.4231953 L200.194321,45.0995553 L212.455696,45.0995553 L212.455696,50.9018132 L200.194321,50.9018132 L200.194321,60.3167978 C205.120766,66.556962 210.156688,73.6729388 215.19261,81.5552515 L211.908313,86.3722203 C207.419774,77.8330482 203.478618,70.9360246 200.194321,65.7906261 L200.194321,122.608963 L194.392063,122.608963 L194.392063,63.0537119 C190.560383,75.0961341 185.305508,85.8248375 178.627438,95.2398221 L176,88.9996579 C184.648649,77.8330482 190.66986,65.1337667 194.17311,50.9018132 L178.736914,50.9018132 L178.736914,45.0995553 Z M215.84947,37.9835785 L243.765994,37.9835785 C241.685939,32.5097503 239.386931,27.4738283 236.86897,23.0947657 L242.890181,22 C245.298666,26.5980157 247.488197,31.9623674 249.568252,37.9835785 L274.091002,37.9835785 L274.091002,43.895313 L215.84947,43.895313 L215.84947,37.9835785 Z M230.081423,49.5880944 L235.117345,51.9965789 C230.081423,62.6158057 224.279165,71.8118372 217.491618,79.5846733 L212.784126,76.3003763 C219.462196,68.8559699 225.264454,59.8788915 230.081423,49.5880944 Z M257.012658,49.2596647 C265.113924,59.3315087 271.244612,67.9801574 275.623674,75.4245638 L270.697229,78.9278139 C266.20869,70.8265481 260.078002,61.9589463 252.305166,52.1060554 L257.012658,49.2596647 Z M255.04208,69.4033527 L260.734861,70.6075949 C258.54533,82.6500171 254.604174,92.7218611 248.801916,100.823127 C255.917893,107.391721 265.113924,112.975026 276.499487,117.463565 L273.434143,122.71844 C261.720151,118.010948 252.305166,112.20869 245.079713,105.421143 C237.416353,113.960315 227.453986,119.872049 215.19261,123.265823 L211.798837,118.120424 C223.950736,114.836127 233.584673,109.252822 240.810127,101.151557 C233.36572,92.7218611 228.767704,82.9784468 226.906603,71.8118372 L232.052001,70.2791652 C233.584673,80.2415327 237.744783,88.9996579 244.422853,96.4440643 C249.677728,88.9996579 253.180978,80.0225795 255.04208,69.4033527 Z M285.447143,62.6158057 L301.759152,62.6158057 L301.759152,23.5326719 L307.342456,23.5326719 L307.342456,62.6158057 L321.136504,62.6158057 L321.136504,68.1991105 L307.342456,68.1991105 L307.342456,71.4834075 C312.925761,77.6140951 318.509066,84.6205953 324.201847,92.3934314 L320.91755,97.4293534 C315.662675,88.6712282 311.06466,81.7742046 307.342456,76.628806 L307.342456,123.04687 L301.759152,123.04687 L301.759152,78.0520014 C297.817995,88.6712282 292.453644,98.1956894 285.55662,106.734861 L283.038659,100.385221 C291.796784,90.9702361 297.927472,80.2415327 301.430722,68.1991105 L285.447143,68.1991105 L285.447143,62.6158057 Z M317.852207,30.320219 L322.669176,30.8676018 C321.90284,40.1731098 320.151215,48.4933288 317.4143,55.7187821 L313.144714,54.4050633 C315.662675,47.3985631 317.195347,39.4067739 317.852207,30.320219 Z M290.373589,32.5097503 C292.23469,39.1878207 293.876839,46.8511803 295.300034,55.3903524 L291.030448,56.5945946 C289.716729,48.7122819 287.965104,41.1583989 285.88505,33.9329456 L290.373589,32.5097503 Z M351.789942,23.0947657 L357.5922,23.0947657 L357.5922,30.9770783 L381.020185,30.9770783 L381.020185,36.0130003 L357.5922,36.0130003 L357.5922,44.661649 L377.845364,44.661649 L377.845364,49.5880944 L357.5922,49.5880944 L357.5922,58.4556962 L383.976052,58.4556962 L383.976052,63.6010948 L325.07766,63.6010948 L325.07766,58.4556962 L351.789942,58.4556962 L351.789942,49.5880944 L330.879918,49.5880944 L330.879918,44.661649 L351.789942,44.661649 L351.789942,36.0130003 L327.705098,36.0130003 L327.705098,30.9770783 L351.789942,30.9770783 L351.789942,23.0947657 Z M337.448512,91.1891892 L337.448512,100.275744 L371.386247,100.275744 L371.386247,91.1891892 L337.448512,91.1891892 Z M371.386247,86.4816969 L371.386247,76.9572357 L337.448512,76.9572357 L337.448512,86.4816969 L371.386247,86.4816969 Z M337.448512,105.092713 L337.448512,122.827917 L331.75573,122.827917 L331.75573,71.9213137 L377.079028,71.9213137 L377.079028,114.507698 C377.079028,119.762573 374.451591,122.39001 369.196716,122.39001 L361.204926,122.39001 L359.781731,117.025659 L367.335614,117.244612 C369.963052,117.244612 371.386247,115.930893 371.386247,113.303455 L371.386247,105.092713 L337.448512,105.092713 Z M407.155662,45.5374615 L470.433117,45.5374615 L470.433117,33.2760862 L404.309271,33.2760862 L404.309271,27.802258 L476.344851,27.802258 L476.344851,68.3085871 L402.44817,68.3085871 L402.44817,62.8347588 L470.433117,62.8347588 L470.433117,50.6828601 L407.155662,50.6828601 L407.155662,45.5374615 Z M415.585358,77.7235717 L420.840233,80.2415327 C416.899076,88.4522751 412.191584,95.5682518 406.936709,101.479986 L402.338693,98.0862128 C407.484092,92.3934314 411.863154,85.6058844 415.585358,77.7235717 Z M444.8156,73.1255559 C444.8156,77.6140951 444.487171,81.664728 443.939788,85.2774547 C449.851522,101.479986 465.944577,112.318166 492,117.791995 L489.482039,123.265823 C464.302429,117.463565 448.428327,107.391721 441.859733,92.9408142 C436.057475,106.953815 421.168662,117.135135 397.083818,123.265823 L394.565857,117.791995 C418.212795,112.099213 432.444749,102.465275 437.042764,88.8901813 C438.13753,85.0585015 438.794389,79.8036264 438.903866,73.1255559 L444.8156,73.1255559 Z M475.250086,76.4098529 L480.504961,79.0372905 C476.563804,86.9196031 471.965789,93.7071502 466.710913,99.3999316 L462.003421,96.1156346 C467.039343,90.6418064 471.527882,84.0732125 475.250086,76.4098529 Z" id="校精灵" fill="#666" fill-rule="nonzero"></path>
            </g>
        </g>
    </g>
</svg>